# xmcd
#
# Track frame offsets:
# 183
# 26448
# 37633
# 54015
# 64705
# 78368
# 90748
# 103738
# 121768
# 135828
# 151490
# 167393
#
# Disc length: 2416 seconds
#
#
# Revision: 2
# Processed by: cddbd v1.5.2PL0 Copyright (c) Steve Scherf et al.
# Submitted via: FreeRIP 2.944 
#
DISCID=7a096e0c
DTITLE=Dollar Co. - Country Beatles
DYEAR=1900
DGENRE=Country
TTITLE0=Hey Jude/Something
TTITLE1=Ob-La-Di/If I Needeed Someone/Here Comes The Sun
TTITLE2=And I Love Her
TTITLE3=I want To Hold Your Hand
TTITLE4=Eight Days A week
TTITLE5=Get Back
TTITLE6=Help!
TTITLE7=With A Little Help From my Friends/Yesterday
TTITLE8=A Hard Day's Night
TTITLE9=Let It Be
TTITLE10=Lucy In The Sky With Diamonds
TTITLE11=I Should Have Known Better
EXTD=
EXTT0=
EXTT1=
EXTT2=
EXTT3=
EXTT4=
EXTT5=
EXTT6=
EXTT7=
EXTT8=
EXTT9=
EXTT10=
EXTT11=
PLAYORDER=
